PathFileType	4	(X/Y/Z)	C:\Users\WrightLab\Desktop\Jo\P2_Trial30.trc
DataRate	CameraRate	NumFrames	NumMarkers	Units	OrigDataRate	OrigDataStartFrame	OrigNumFrames
100.00	100.00	       16	19	mm	100.00	74	       591
Frame#	Time	Headset_Front			Headset_Back			Headset_Left			Headset_Right			Left_Shoulder			Right_Shoulder			Sternum			C7			Left Elbow			Right Elbow			Left Wrist			Right Wrist			Left ASIS			Right ASIS			S2			Left Knee			Right Knee			Left Ankle			Right Ankle			
		X1	Y1	Z1	X2	Y2	Z2	X3	Y3	Z3	X4	Y4	Z4	X5	Y5	Z5	X6	Y6	Z6	X7	Y7	Z7	X8	Y8	Z8	X9	Y9	Z9	X10	Y10	Z10	X11	Y11	Z11	X12	Y12	Z12	X13	Y13	Z13	X14	Y14	Z14	X15	Y15	Z15	X16	Y16	Z16	X17	Y17	Z17	X18	Y18	Z18	X19	Y19	Z19	

74	0.730													-629.67560	1517.91980	-998.36670				-532.95563	1276.28052	-1075.87122							-493.41406	912.65448	-1325.95190				-811.62268	837.34644	-1298.38171				-632.54572	977.08002	-1088.05115				-274.10248	407.78067	-1217.02856				-208.34145	74.31602	-1344.24695	-716.15692	514.19562	-1157.12122	
75	0.740													-635.01379	1518.77563	-992.40088				-540.33972	1277.68970	-1069.07776							-498.95120	913.89984	-1319.78381				-818.18439	838.61462	-1290.85815				-638.85913	979.06879	-1082.38000				-280.93665	409.20404	-1209.34961				-211.02055	78.48393	-1340.00293	-722.87073	515.79742	-1151.68787	
76	0.750													-640.43842	1519.66699	-986.06909				-546.61047	1278.53992	-1062.63281							-504.24136	915.13312	-1313.91919				-824.61017	840.67596	-1284.39563				-646.05640	980.67053	-1076.93079				-288.64505	411.91583	-1200.87048				-216.61787	80.91532	-1333.71692	-729.91907	516.32532	-1145.80249	
77	0.760	-289.19006	1080.62671	-1085.66431										-645.99768	1521.00964	-979.07477				-553.71436	1281.09875	-1057.79883							-509.41330	916.40143	-1307.85657				-831.63721	842.49451	-1277.36768				-652.00470	981.83795	-1071.49609				-294.73514	413.88348	-1196.30298				-221.11940	86.69489	-1328.61536	-737.65863	517.25043	-1140.71167	
78	0.770	-295.05667	1082.05530	-1077.38220										-651.39154	1522.50879	-972.31818				-559.22852	1281.42627	-1050.83447							-514.56683	917.55585	-1302.37561				-838.86566	844.61200	-1270.70605				-657.33368	983.40881	-1066.04944				-304.28885	414.47372	-1184.70142				-224.96074	91.69125	-1322.94360	-743.77545	518.86029	-1137.53442	
79	0.780	-299.47244	1084.85779	-1068.97705										-656.71796	1523.73523	-965.66870				-567.24414	1283.04492	-1045.92456							-519.60327	918.23273	-1296.12146				-846.52283	845.95380	-1262.63013				-663.53448	985.23590	-1060.05981				-316.30685	418.23495	-1174.33289				-228.88109	95.48224	-1317.49182	-750.76300	518.82635	-1132.53247	
80	0.790	-305.41360	1085.53857	-1064.91833										-661.92291	1524.36548	-959.32629	-711.19421	1411.03503	-1131.01965	-572.45331	1284.51794	-1040.48914							-524.57635	918.52234	-1289.40991				-854.76123	847.11072	-1254.21582				-669.68347	986.29126	-1054.15552				-330.50604	418.62030	-1162.58997				-235.37621	100.09728	-1308.81970	-758.33441	517.79498	-1126.47424	
81	0.800	-311.04156	1086.85388	-1060.65540										-667.22595	1524.59070	-953.11139	-716.93402	1411.08411	-1123.99133	-577.91302	1285.14197	-1033.48083	-544.49768	1407.36841	-1200.48914				-529.46753	919.01459	-1283.56042				-863.05688	848.11230	-1245.81213				-676.09955	986.81934	-1048.34766				-345.76660	419.20721	-1150.72351				-241.18489	107.01732	-1302.74500	-764.79639	518.89703	-1124.03674	
82	0.810	-318.03717	1087.55945	-1055.19482	-387.45865	1143.61450	-789.91284	-335.63580	1097.99646	-763.43683	-453.26117	1100.35791	-839.68384	-672.23499	1524.94470	-947.47125	-722.02618	1411.02710	-1119.04089	-584.91724	1286.49402	-1028.72107	-550.73572	1407.96008	-1195.24158	-571.21924	1458.64575	-852.22076	-534.49274	919.55707	-1278.50842				-871.14398	849.62268	-1238.69983	-553.00195	996.81708	-1010.64618	-680.73938	987.18573	-1042.21509	-303.03006	1072.65393	-773.84760	-361.02661	419.09503	-1139.46521	-411.03131	1100.50500	-815.93170	-248.26454	114.05338	-1296.94849	-771.83258	518.15454	-1118.65894	
83	0.820	-323.19489	1087.49548	-1050.39734	-410.53082	1400.67554	-1040.01184							-677.20831	1525.12256	-941.03821	-728.67438	1411.57153	-1112.45874	-590.28912	1286.70801	-1022.13593	-556.84711	1408.22534	-1190.05090	-574.92944	1459.13843	-846.69098	-539.56567	919.78503	-1272.97034				-881.07172	848.35229	-1225.10449	-558.45764	997.00574	-1006.64197	-685.68762	986.96307	-1035.82458				-375.46075	419.14551	-1126.03064				-257.97760	120.63223	-1286.61890	-778.04559	518.19208	-1115.05103	
84	0.830	-328.19916	1089.00525	-1045.84021	-416.22571	1401.18982	-1032.64221							-682.11890	1525.74072	-934.79620	-733.88086	1412.52539	-1106.12305	-594.87054	1285.75940	-1015.27472	-562.66650	1408.35620	-1184.16077	-579.74652	1458.43933	-840.95300	-544.70837	919.78510	-1267.37927				-888.22180	850.32196	-1220.46814	-563.29395	997.62030	-999.51392	-690.21631	986.97015	-1029.75684				-390.50354	418.19904	-1113.47974				-267.48578	128.60251	-1277.02197	-783.72229	515.76978	-1118.12109	
85	0.840	-332.29037	1089.73474	-1040.24951	-421.34796	1402.05945	-1028.85803							-686.83636	1526.02942	-928.61621	-739.43768	1413.16650	-1100.93713	-600.14960	1286.67944	-1010.11066	-568.13989	1408.83618	-1179.24451				-549.76538	919.66150	-1261.56213				-897.84827	849.51331	-1208.62659	-567.52875	998.73230	-990.10107	-694.78162	986.06531	-1024.56860				-402.45746	418.56927	-1102.45398				-277.74966	137.10274	-1268.04016	-788.05640	517.80164	-1107.35535	
86	0.850	-336.62585	1090.40698	-1033.98694	-426.02185	1401.94568	-1022.83362				-446.16824	1117.56995	-800.47760	-691.48621	1526.01416	-922.67206	-744.90784	1412.12793	-1095.59937	-605.07904	1287.01318	-1004.62994	-573.65570	1408.86560	-1174.05920	-417.75903	1140.76831	-762.98419				-318.81580	1077.18494	-753.36127	-906.96875	848.89050	-1197.28198	-572.04907	996.26678	-988.97650	-698.48352	984.92102	-1018.69348	-376.50043	1088.89514	-762.28845	-410.57016	422.15955	-1087.69861	-446.95285	1093.58752	-812.44568	-287.50006	145.87376	-1259.00171	-792.87994	513.22479	-1112.87170	
87	0.860	-341.01373	1091.10193	-1030.40967	-431.17996	1403.38574	-1019.53540							-695.91681	1525.80640	-917.48096	-749.48871	1412.84229	-1088.85852	-609.26825	1287.11816	-1000.35608	-578.88861	1409.11499	-1168.81702										-914.45789	849.96161	-1189.67334	-576.63068	996.75726	-980.42365	-703.24982	985.19012	-1013.29529				-417.82211	425.38104	-1071.72229				-299.83478	153.34447	-1245.50964	-795.96008	516.89453	-1098.60352	
88	0.870	-347.55707	1090.35315	-1027.77698	-435.66949	1402.47522	-1012.67938							-700.32928	1525.58386	-911.65424	-754.39166	1413.03821	-1083.32947	-615.20270	1287.65234	-995.08270	-584.05865	1409.17273	-1163.35046										-923.31158	849.55048	-1178.12183	-580.35144	996.64374	-973.41266	-707.85388	985.01605	-1007.60614				-427.08328	428.84445	-1054.01294				-310.38031	160.84344	-1234.69775	-798.67035	515.28076	-1094.25415	
89	0.880	-352.26746	1090.73694	-1023.72296	-440.19354	1403.15222	-1007.68134							-704.74066	1525.11353	-905.96667	-759.27454	1412.69397	-1078.08105	-620.16803	1287.66821	-989.17224	-589.08740	1409.50220	-1158.37756				-567.10931	919.82288	-1238.08838				-930.87030	850.15918	-1169.51208	-586.05957	996.17041	-970.92560	-713.13220	984.94373	-1002.01563				-434.56085	431.00168	-1036.55042				-319.70871	168.03821	-1223.71326	-802.47827	511.10287	-1104.55640	
